<?xml version="1.0" encoding="UTF-8"?>
<svg width="104px" height="24px" viewBox="0 0 104 24" version="1.1" xmlns="http://www.w3.org/2000/svg" xmlns:xlink="http://www.w3.org/1999/xlink">
    <g id="desktop" stroke="none" stroke-width="1" fill="none" fill-rule="evenodd">
        <g id="desktop---fixed-header" transform="translate(-50.000000, -28.000000)" fill="#191919">
            <g id="fixed-header">
                <g id="logo" transform="translate(50.000000, 28.000000)">
                    <path d="M7.45687143,9.60121429 C9.06787143,9.60121429 10.5335857,8.1355 10.5335857,6.37921429 C10.5335857,4.62035714 9.06787143,3.15464286 7.45687143,3.15464286 L3.50201429,3.15464286 L3.50201429,9.60121429 L7.45687143,9.60121429 Z M7.45687143,0.518928571 C10.6788714,0.518928571 13.3171571,3.15464286 13.3171571,6.37921429 C13.3171571,9.60121429 10.6788714,12.2382143 7.45687143,12.2382143 L3.50201429,12.2382143 L3.50201429,18.9766429 L0.718442857,18.9766429 L0.718442857,0.518928571 L7.45687143,0.518928571 Z" id="Fill-1"></path>
                    <path d="M14.6388714,5.79305714 L17.4211571,5.79305714 L21.0854429,15.3137714 L24.7458714,5.79305714 L27.5294429,5.79305714 L21.9623,19.8562 C20.7910143,22.7850571 19.7663,23.8110571 17.7155857,23.8110571 C17.2758714,23.8110571 16.8361571,23.6632 16.8361571,23.6632 L16.8361571,21.4659143 C18.3018714,21.4659143 19.0334429,20.7343429 19.3265857,19.8562 L19.7663,18.5370571 L14.6388714,5.79305714 Z" id="Fill-3"></path>
                    <path d="M39.1062714,12.6772857 C39.1062714,10.48 37.3487,8.72242857 35.4432714,8.72242857 C33.5391286,8.72242857 31.7815571,10.48 31.7815571,12.6772857 C31.7815571,14.8745714 33.5391286,16.6321429 35.4432714,16.6321429 C37.3487,16.6321429 39.1062714,14.8745714 39.1062714,12.6772857 M41.7432714,12.6772857 C41.7432714,16.3402857 38.9597,19.1238571 35.4432714,19.1238571 C31.7815571,19.1238571 28.9992714,16.3402857 28.9992714,10.9197143 C28.9992714,3.30185714 31.7815571,0.518285714 40.1309857,0.225142857 L40.1309857,2.86214286 C33.8322714,3.00742857 32.2212714,4.61971429 31.7815571,8.28271429 C31.7815571,8.28271429 32.9541286,6.232 35.7364143,6.232 C38.9597,6.232 41.7432714,9.01428571 41.7432714,12.6772857" id="Fill-5"></path>
                    <path d="M55.3686286,5.79305714 L55.3686286,18.9767714 L52.7316286,18.9767714 L52.7316286,8.28348571 L48.3370571,8.28348571 L47.8973429,14.5822 C47.6929143,17.5110571 46.1397714,19.1233429 43.6506286,19.1233429 C43.2109143,19.1233429 42.7699143,18.9767714 42.7699143,18.9767714 L42.7699143,16.7782 L43.0643429,16.7782 C44.3822,16.7782 45.1433429,16.0479143 45.2603429,14.5822 L45.9932,5.79305714 L55.3686286,5.79305714 Z" id="Fill-7"></path>
                    <path d="M64.7477857,16.4867286 C65.7737857,16.4867286 66.6519286,15.6073 66.6519286,14.5825857 C66.6519286,13.5565857 65.7737857,12.6771571 64.7477857,12.6771571 L61.5245,12.6771571 L61.5245,16.4867286 L64.7477857,16.4867286 Z M69.2889286,14.5825857 C69.2889286,17.0717286 67.3847857,18.9771571 64.7477857,18.9771571 L58.8887857,18.9771571 L58.8887857,5.79344286 L61.5245,5.79344286 L61.5245,10.1880143 L64.7477857,10.1880143 C67.3847857,10.1880143 69.2889286,12.0908714 69.2889286,14.5825857 Z" id="Fill-9"></path>
                    <path d="M72.5147857,19.1234714 C71.6353571,19.1234714 70.9037857,18.3906143 70.9037857,17.5111857 C70.9037857,16.6330429 71.6353571,15.9001857 72.5147857,15.9001857 C73.3942143,15.9001857 74.1257857,16.6330429 74.1257857,17.5111857 C74.1257857,18.3906143 73.3942143,19.1234714 72.5147857,19.1234714" id="Fill-11"></path>
                    <path d="M86.7266857,12.3835 C86.7266857,9.89307143 84.9678286,8.1355 82.9171143,8.1355 C80.8664,8.1355 79.1075429,9.89307143 79.1075429,12.3835 C79.1075429,14.8739286 80.8664,16.6327857 82.9171143,16.6327857 C84.9678286,16.6327857 86.7266857,14.8739286 86.7266857,12.3835 M89.3624,12.3835 C89.3624,16.3396429 86.5801143,19.1232143 83.0624,19.1232143 C80.5732571,19.1232143 79.4019714,17.6587857 79.4019714,17.6587857 L79.4019714,23.6630714 L76.7649714,23.6630714 L76.7649714,5.79292857 L78.6678286,5.79292857 L79.2541143,7.11078571 C79.2541143,7.11078571 80.4279714,5.64635714 83.0624,5.64635714 C86.5801143,5.64635714 89.3624,8.42864286 89.3624,12.3835" id="Fill-13"></path>
                    <path d="M90.6855286,5.79305714 L93.4678143,5.79305714 L97.1308143,15.3137714 L100.792529,5.79305714 L103.574814,5.79305714 L98.0089571,19.8562 C96.8376714,22.7850571 95.8116714,23.8110571 93.7609571,23.8110571 C93.3212429,23.8110571 92.8815286,23.6632 92.8815286,23.6632 L92.8815286,21.4659143 C94.3472429,21.4659143 95.0801,20.7343429 95.3732429,19.8562 L95.8116714,18.5370571 L90.6855286,5.79305714 Z" id="Fill-15"></path>
                </g>
            </g>
        </g>
    </g>
</svg>
