<?xml version="1.0" encoding="utf-8"?>
<!-- Generator: Adobe Illustrator 16.2.0, SVG Export Plug-In . SVG Version: 6.00 Build 0)  -->
<!DOCTYPE svg PUBLIC "-//W3C//DTD SVG 1.1//EN" "http://www.w3.org/Graphics/SVG/1.1/DTD/svg11.dtd">
<svg version="1.1" id="Layer_1" xmlns="http://www.w3.org/2000/svg" xmlns:xlink="http://www.w3.org/1999/xlink" x="0px" y="0px"
	 width="380px" height="160px" viewBox="0 0 380 160" enable-background="new 0 0 380 160" xml:space="preserve">
<rect fill="#292929" width="380" height="160"/>
<g>
	<defs>
		<rect id="SVGID_1_" x="97" y="51.5" width="186" height="57"/>
	</defs>
	<clipPath id="SVGID_2_">
		<use xlink:href="#SVGID_1_"  overflow="visible"/>
	</clipPath>
	<path clip-path="url(#SVGID_2_)" fill="#FFFFFF" d="M189.612,75.809c-1.283-0.493-2.962-0.641-4.789-0.641h-10.17v-3.156h17.478
		v-5.424h-24.635v23.47h16.686c2.321,0,4.048-0.197,5.332-0.689c2.715-1.035,4.542-3.551,4.542-6.854
		C194.055,79.162,192.327,76.844,189.612,75.809 M186.058,83.945c-0.395,0.148-0.939,0.197-1.629,0.197h-9.775v-3.748h9.775
		c0.79,0,1.432,0.05,1.925,0.296c0.592,0.296,0.889,0.838,0.889,1.528C187.242,82.91,186.896,83.648,186.058,83.945"/>
	<path clip-path="url(#SVGID_2_)" fill="#FFFFFF" d="M214.125,66.588H203.66l-9.627,23.47h8.097l1.333-3.402h10.859l1.383,3.402
		h8.047L214.125,66.588z M205.239,81.48l3.407-9.468h0.543l3.406,9.468H205.239z"/>
	<polygon clip-path="url(#SVGID_2_)" fill="#FFFFFF" points="232.966,81.332 232.966,90.059 225.809,90.059 225.809,66.588 
		232.966,66.588 232.966,75.168 244.469,75.168 244.469,66.588 251.627,66.588 251.627,90.059 244.469,90.059 244.469,81.332 	"/>
	<polygon clip-path="url(#SVGID_2_)" fill="#FFFFFF" points="262.957,81.184 262.957,90.059 255.799,90.059 255.799,66.588 
		262.957,66.588 262.957,75.415 264.932,75.415 273.57,66.588 282.555,66.588 271.103,77.831 283,90.059 273.473,90.059 
		264.932,81.184 	"/>
	<path clip-path="url(#SVGID_2_)" fill="#FFDD2D" d="M97,51.5h57.067v28.667c0,7.349-3.925,14.14-10.297,17.815L125.534,108.5
		l-18.237-10.518C100.925,94.307,97,87.516,97,80.167V51.5z"/>
	<path clip-path="url(#SVGID_2_)" fill-rule="evenodd" clip-rule="evenodd" fill="#333333" d="M112.662,66.588v8.916
		c1.221-1.377,3.44-2.309,5.978-2.309h2.758v10.365c0,2.758-0.75,5.172-1.863,6.498h11.995c-1.111-1.328-1.859-3.738-1.859-6.492
		V73.195h2.757c2.538,0,4.757,0.932,5.978,2.309v-8.916H112.662z"/>
</g>
</svg>
