<svg width="60" height="60" viewBox="0 0 60 60" fill="none" xmlns="http://www.w3.org/2000/svg">
<circle cx="30" cy="30" r="30" fill="#038AEE"/>
<path d="M29.9999 30.7826L35.6572 36.4386L33.7705 38.3253L31.3332 35.888V43.3346H28.6665V35.8853L26.2292 38.3253L24.3425 36.4386L29.9999 30.7826ZM29.9999 16.668C32.2892 16.6681 34.4986 17.5095 36.2081 19.0321C37.9176 20.5548 39.008 22.6526 39.2719 24.9266C40.9309 25.3792 42.3782 26.4003 43.3607 27.8117C44.3432 29.223 44.7985 30.9348 44.647 32.6477C44.4954 34.3607 43.7467 35.966 42.5317 37.1829C41.3167 38.3998 39.7126 39.1511 37.9999 39.3053V36.62C38.614 36.5331 39.2047 36.3247 39.7374 36.0069C40.2701 35.6891 40.7341 35.2683 41.1022 34.7691C41.4704 34.2699 41.7353 33.7023 41.8816 33.0996C42.0278 32.4968 42.0524 31.8709 41.954 31.2585C41.8555 30.6461 41.6359 30.0594 41.3081 29.5329C40.9803 29.0063 40.5508 28.5504 40.0447 28.1917C39.5386 27.8331 38.9661 27.5789 38.3607 27.4441C37.7552 27.3093 37.129 27.2966 36.5185 27.4066C36.7273 26.4345 36.7161 25.4279 36.4855 24.4607C36.2549 23.4935 35.8109 22.5901 35.186 21.8167C34.5611 21.0433 33.7711 20.4194 32.8738 19.9909C31.9766 19.5623 30.9949 19.3399 30.0005 19.3399C29.0062 19.3399 28.0245 19.5623 27.1272 19.9909C26.23 20.4194 25.44 21.0433 24.8151 21.8167C24.1901 22.5901 23.7461 23.4935 23.5156 24.4607C23.285 25.4279 23.2737 26.4345 23.4825 27.4066C22.2661 27.1782 21.0087 27.4423 19.987 28.141C18.9653 28.8396 18.263 29.9155 18.0345 31.132C17.8061 32.3484 18.0702 33.6058 18.7689 34.6275C19.4675 35.6492 20.5434 36.3515 21.7599 36.58L21.9999 36.62V39.3053C20.2871 39.1511 18.6831 38.3998 17.468 37.1829C16.253 35.966 15.5043 34.3607 15.3528 32.6477C15.2012 30.9348 15.6565 29.223 16.639 27.8117C17.6215 26.4003 19.0688 25.3792 20.7279 24.9266C20.9915 22.6525 22.0817 20.5545 23.7913 19.0318C25.5009 17.5091 27.7105 16.6678 29.9999 16.668Z" fill="white"/>
</svg>
